<svg xmlns="http://www.w3.org/2000/svg" width="512" height="512"><g fill="none" fill-rule="evenodd"><path d="M218.61 223.454H11.74C26.71 322.7 57.704 421.472 116.188 469.155c8.389 6.841 18.616 10.495 29.11 10.495h146.625c10.493 0 20.72-3.654 29.11-10.495 58.483-47.683 89.478-146.455 104.448-245.7H218.61z" fill="#FEFEFE"/><path d="M362.884 223.454C347.907 322.7 316.92 421.472 258.436 469.155c-8.396 6.841-18.616 10.495-29.117 10.495h62.6c10.501 0 20.72-3.654 29.117-10.495 58.484-47.683 89.471-146.455 104.449-245.7h-62.6z" fill="#010202" opacity=".15"/><path d="M434.14 223.454c-2.981 0-5.892.295-8.772.715-2.614 17.219-5.728 34.406-9.367 51.33 3.811-2.371 8.162-3.833 12.873-3.833 14.374 0 26.034 7.688 26.034 28.203 0 25.24-31.246 40.112-45.62 40.112-4.962 0-7.23-2.954-8.123-7.416-6.753 21.618-14.672 42.094-23.835 60.875 2.254.785 4.71 1.337 7.676 1.337 36.05 0 114.41-37.305 114.41-100.598 0-51.446-29.226-70.725-65.276-70.725" fill="#FEFEFE"/><path d="M434.14 223.454c-2.981 0-5.892.295-8.772.715-2.614 17.219-5.728 34.406-9.367 51.33 3.811-2.371 8.162-3.833 12.873-3.833 14.374 0 26.034 7.688 26.034 28.203 0 25.24-31.246 40.112-45.62 40.112-4.962 0-7.23-2.954-8.123-7.416-6.753 21.618-14.672 42.094-23.835 60.875 2.254.785 4.71 1.337 7.676 1.337 36.05 0 114.41-37.305 114.41-100.598 0-51.446-29.226-70.725-65.276-70.725" fill="#010202" opacity=".15"/><path d="M25.469 235.116c13.216 79.517 40.823 178.273 98.165 225.024 6.3 5.13 13.788 7.85 21.66 7.85h146.625c7.88 0 15.376-2.72 21.668-7.85 57.341-46.759 84.948-145.507 98.165-225.024H25.469zm266.45 256.196H145.294c-13.178 0-26.152-4.672-36.543-13.138C42.355 424.047 13.035 310.722.13 225.181a11.598 11.598 0 0 1 2.708-9.336 11.793 11.793 0 0 1 8.897-4.05h413.749c3.42 0 6.667 1.477 8.897 4.05a11.63 11.63 0 0 1 2.715 9.336c-12.911 85.541-42.232 198.858-108.612 252.993-10.399 8.466-23.389 13.138-36.566 13.138z" fill="#2E2E30"/><path d="M407.252 351.557c-3.701 10.658-7.66 20.873-11.847 30.582 34.415-5.9 92.273-38.114 92.273-87.959 0-38.681-17.544-58.543-52.154-59.056a878.387 878.387 0 0 1-4.405 24.93c21.972.956 35.525 16.03 35.525 39.816 0 33.505-37.889 51.773-57.357 51.773-.689 0-1.37-.031-2.035-.086m-22.246 54.882c-3.944 0-7.724-.653-11.566-1.998a11.676 11.676 0 0 1-6.956-6.56 11.586 11.586 0 0 1 .29-9.523c8.63-17.685 16.432-37.617 23.185-59.25 1.588-5.1 6.471-8.52 11.84-8.187a11.732 11.732 0 0 1 10.21 7.168c10.917-1.703 31.16-12.531 31.16-28.219 0-14.536-6.87-16.542-14.288-16.542-2.23 0-4.46.692-6.652 2.052a11.816 11.816 0 0 1-12.958-.326c-3.858-2.69-5.736-7.408-4.75-11.995 3.522-16.34 6.62-33.372 9.242-50.63.774-5.083 4.789-9.056 9.914-9.802 3.905-.568 7.23-.832 10.47-.832 48.226 0 77.006 30.8 77.006 82.385 0 69.636-81.67 112.26-126.147 112.26M142.508 171.416c-6.48 0-11.738-5.216-11.738-11.66V85.967c0-6.437 5.259-11.66 11.738-11.66 6.48 0 11.737 5.223 11.737 11.66v73.787c0 6.445-5.258 11.66-11.737 11.66M290.771 171.416c-6.479 0-11.737-5.216-11.737-11.66V85.967c0-6.437 5.258-11.66 11.737-11.66 6.48 0 11.738 5.223 11.738 11.66v73.787c0 6.445-5.259 11.66-11.738 11.66M216.563 171.416c-6.479 0-11.737-5.216-11.737-11.66V30.984c0-6.444 5.258-11.66 11.737-11.66 6.48 0 11.738 5.216 11.738 11.66v128.77c0 6.445-5.259 11.66-11.738 11.66" fill="#2E2E30"/><path d="M92.308 437.355h252.608" fill="#FEFEFE"/><path d="M344.912 449.016h-252.6c-6.48 0-11.738-5.216-11.738-11.66 0-6.445 5.259-11.66 11.738-11.66h252.6c6.479 0 11.737 5.215 11.737 11.66 0 6.444-5.258 11.66-11.737 11.66" fill="#2E2E30"/></g></svg>