<svg xmlns="http://www.w3.org/2000/svg" width="512" height="512"><g fill="none" fill-rule="evenodd"><path d="M91.298 457.58h241.325c49.124-36.788 80.917-95.484 80.917-161.608 0-111.416-90.25-201.733-201.583-201.733-111.325 0-201.576 90.317-201.576 201.733 0 66.124 31.793 124.82 80.917 161.607" fill="#FEFEFE"/><path d="M14.722 337.38c10.199 48.892 38.006 91.309 76.579 120.196h241.318c38.573-28.887 66.38-71.304 76.578-120.195H14.722z" fill="#513A2B"/><path d="M211.96 94.242c-8.2 0-16.274.547-24.217 1.502 99.903 11.979 177.36 97.02 177.36 200.223 0 66.132-31.792 124.82-80.917 161.615h48.433c49.124-36.794 80.916-95.483 80.916-161.615 0-111.408-90.25-201.725-201.575-201.725" fill="#010202" opacity=".15"/><path d="M94.797 447.196h234.324c47.097-36.56 74.039-91.48 74.039-151.229 0-105.509-85.767-191.34-191.198-191.34-105.437 0-191.204 85.831-191.204 191.34 0 59.748 26.942 114.67 74.04 151.229m237.823 20.772H91.297c-2.242 0-4.429-.72-6.214-2.07C31.005 425.406.001 363.463.001 295.968c0-116.955 95.087-212.113 211.961-212.113 116.868 0 211.955 95.158 211.955 212.112 0 67.496-31.004 129.439-85.082 169.93a10.298 10.298 0 0 1-6.214 2.071" fill="#2E2E30"/><path d="M94.804 447.196h234.309c32.47-25.238 55.85-60.087 66.864-99.423H27.94c11.022 39.336 34.401 74.185 66.865 99.423m237.817 20.772H91.296c-2.242 0-4.421-.72-6.213-2.07-41.39-31-69.985-75.888-80.523-126.392a10.406 10.406 0 0 1 2.11-8.676 10.387 10.387 0 0 1 8.054-3.829h394.468a10.4 10.4 0 0 1 8.061 3.83 10.403 10.403 0 0 1 2.103 8.675c-10.537 50.504-39.133 95.393-80.515 126.392a10.333 10.333 0 0 1-6.22 2.07" fill="#2E2E30"/><path d="M387.245 104.452H70.967v40.866h316.278v-.45c39.057 0 70.718 31.685 70.718 70.771v98.003c0 11.162 9.043 20.212 20.19 20.212 11.153 0 20.196-9.05 20.196-20.212V215.64c0-61.41-49.747-111.187-111.104-111.187" fill="#FBAE3A"/><path d="M387.246 104.452H338.82c43.977 0 81.872 25.64 99.875 62.733 11.914 12.664 19.269 29.683 19.269 48.454v98.003c0 11.162 9.043 20.212 20.19 20.212 11.153 0 20.196-9.05 20.196-20.212V215.64c0-61.41-49.747-111.187-111.104-111.187" fill="#010202" opacity=".15"/><path d="M387.244 134.48c44.717 0 81.096 36.407 81.096 81.157v98.003c0 5.422 4.4 9.819 9.818 9.819 5.41 0 9.811-4.397 9.811-9.819v-98.003c0-55.58-45.187-100.8-100.725-100.8h-305.9v20.093h302.994c.92-.29 1.895-.45 2.906-.45m90.914 209.75c-16.861 0-30.575-13.716-30.575-30.59v-98.003c0-32.39-25.606-58.903-57.627-60.322a9.763 9.763 0 0 1-2.712.387H70.966c-5.729 0-10.378-4.646-10.378-10.386V104.45c0-5.74 4.65-10.386 10.378-10.386h316.278c66.989 0 121.482 54.541 121.482 121.573v98.003c0 16.874-13.713 30.59-30.568 30.59" fill="#2E2E30"/><path d="M332.41 104.452H71.74c-23.746 0-43-19.262-43-43.033v-5.047h303.67v48.08z" fill="#FEFEFE"/><path fill="#010202" opacity=".15" d="M283.98 104.455h48.433V56.374H283.98z"/><path d="M39.554 66.758c2.553 15.468 16.01 27.308 32.187 27.308h250.292V66.758H39.554zm292.857 48.08H71.741c-29.433 0-53.38-23.964-53.38-53.419v-5.047c0-5.74 4.65-10.386 10.386-10.386H332.41c5.729 0 10.379 4.646 10.379 10.386v48.08c0 5.734-4.65 10.387-10.379 10.387zM148.703 250.212H86.855c-5.736 0-10.379-4.653-10.379-10.386 0-5.734 4.643-10.386 10.379-10.386h61.848c5.729 0 10.378 4.652 10.378 10.386 0 5.733-4.65 10.386-10.378 10.386M148.703 216.085h-30.928c-5.729 0-10.378-4.653-10.378-10.386 0-5.74 4.65-10.386 10.378-10.386h30.928c5.729 0 10.378 4.646 10.378 10.386 0 5.733-4.65 10.386-10.378 10.386M148.703 315.145H86.855c-5.736 0-10.379-4.653-10.379-10.386s4.643-10.386 10.379-10.386h61.848c5.729 0 10.378 4.653 10.378 10.386s-4.65 10.386-10.378 10.386M148.703 281.025h-30.928c-5.729 0-10.378-4.653-10.378-10.386s4.65-10.386 10.378-10.386h30.928c5.729 0 10.378 4.653 10.378 10.386s-4.65 10.386-10.378 10.386" fill="#2E2E30"/></g></svg>