<?xml version="1.0" standalone="no"?>
<!DOCTYPE svg PUBLIC "-//W3C//DTD SVG 20010904//EN"
 "http://www.w3.org/TR/2001/REC-SVG-20010904/DTD/svg10.dtd">
<svg version="1.0" xmlns="http://www.w3.org/2000/svg"
 width="700.000000pt" height="700.000000pt" viewBox="0 0 700.000000 700.000000"
 preserveAspectRatio="xMidYMid meet">
<metadata>
Created by potrace 1.11, written by Peter Selinger 2001-2013
</metadata>
<g transform="translate(0.000000,700.000000) scale(0.100000,-0.100000)"
fill="#000000" stroke="none">
<path d="M2570 6990 c-652 -62 -1210 -322 -1635 -761 -397 -411 -641 -936
-732 -1579 -25 -180 -25 -689 0 -880 129 -964 575 -1850 1292 -2565 980 -979
2274 -1405 3389 -1115 956 249 1666 1012 1870 2010 54 266 61 343 61 685 0
334 -7 418 -56 680 -228 1230 -1069 2403 -2179 3040 -439 252 -885 405 -1370
470 -139 19 -508 27 -640 15z"/>
</g>
</svg>
