<svg xmlns="http://www.w3.org/2000/svg" viewBox="0 0 33.867 33.867" height="128" width="128"><g fill-rule="evenodd"><path d="M26.42 9.51c5.29 6.768 5.326 15.578.08 19.678-5.246 4.1-13.786 1.937-19.078-4.832-5.29-6.768-5.327-15.579-.08-19.679C12.587.577 21.13 2.741 26.42 9.51" fill="#b4814a"/><path d="M13.636 5.205c-1.794 0-3.418.526-4.692 1.524-4.106 3.21-3.869 10.398.53 16.025 2.847 3.643 6.959 5.907 10.731 5.907 1.794 0 3.418-.527 4.692-1.523 1.89-1.476 2.923-3.883 2.911-6.777-.012-3.144-1.234-6.428-3.439-9.25-2.849-3.643-6.96-5.906-10.733-5.906m6.569 28.662c-5.419 0-10.962-2.957-14.833-7.907C-.793 18.07-.63 7.605 5.738 2.627 7.938.907 10.67 0 13.636 0 19.055 0 24.6 2.957 28.47 7.907c2.913 3.725 4.527 8.14 4.544 12.433.02 4.539-1.724 8.41-4.91 10.9-2.2 1.718-4.931 2.627-7.898 2.627" fill="#2e2e30"/><path d="M8.904 3.686s.86 11.46 8.017 13.247c5.797 1.447 7.593 12.945 7.593 12.945" fill="#b4814a"/><path d="M24.51 32.48a2.602 2.602 0 0 1-2.565-2.198c-.507-3.196-2.556-10.052-5.653-10.824C7.413 17.243 6.348 4.426 6.308 3.881A2.602 2.602 0 0 1 8.71 1.09c1.407-.1 2.68.965 2.79 2.398.013.16.916 9.638 6.051 10.918 7.263 1.814 9.323 13.718 9.535 15.07a2.6 2.6 0 0 1-2.575 3.003" fill="#2e2e30"/><path d="M26.42 9.51c-1.599-2.045-3.495-3.662-5.508-4.82 3.797 6.391 3.361 13.874-1.351 17.558-3.661 2.861-8.926 2.665-13.572-.012.429.722.897 1.433 1.435 2.12 5.29 6.769 13.83 8.932 19.077 4.832 5.245-4.1 5.209-12.91-.082-19.679" fill="#010202" opacity=".15"/></g></svg>