<?xml version="1.0" encoding="UTF-8"?>
<svg xmlns="http://www.w3.org/2000/svg" xmlns:xlink="http://www.w3.org/1999/xlink" aria-hidden="true" style="position: absolute; width: 0; height: 0; overflow: hidden;" version="1.1">
  <defs>
    <!-- https://fontawesome.com/ -->
    <symbol id="twitter" viewBox="0 0 512 512">
      <path
        fill="currentColor"
        d="M459.37 151.716c.325 4.548.325 9.097.325 13.645 0 138.72-105.583 298.558-298.558 298.558-59.452 0-114.68-17.219-161.137-47.106 8.447.974 16.568 1.299 25.34 1.299 49.055 0 94.213-16.568 130.274-44.832-46.132-.975-84.792-31.188-98.112-72.772 6.498.974 12.995 1.624 19.818 1.624 9.421 0 18.843-1.3 27.614-3.573-48.081-9.747-84.143-51.98-84.143-102.985v-1.299c13.969 7.797 30.214 12.67 47.431 13.319-28.264-18.843-46.781-51.005-46.781-87.391 0-19.492 5.197-37.36 14.294-52.954 51.655 63.675 129.3 105.258 216.365 109.807-1.624-7.797-2.599-15.918-2.599-24.04 0-57.828 46.782-104.934 104.934-104.934 30.213 0 57.502 12.67 76.67 33.137 23.715-4.548 46.456-13.32 66.599-25.34-7.798 24.366-24.366 44.833-46.132 57.827 21.117-2.273 41.584-8.122 60.426-16.243-14.292 20.791-32.161 39.308-52.628 54.253z"
      />
    </symbol>

    <symbol id="linkedin" viewBox="0 0 448.1 512">
      <path
        fill="currentColor"
        d="M100.3 448H7.4V148.9h92.9V448zM53.8 108.1C24.1 108.1 0 83.5 0 53.8S24.1 0 53.8 0s53.8 24.1 53.8 53.8-24.1 54.3-53.8 54.3zM448 448h-92.7V302.4c0-34.7-.7-79.2-48.3-79.2-48.3 0-55.7 37.7-55.7 76.7V448h-92.8V148.9h89.1v40.8h1.3c12.4-23.5 42.7-48.3 87.9-48.3 94 0 111.3 61.9 111.3 142.3V448h-.1z"
      />
    </symbol>

    <symbol id="codepen" viewBox="0 0 512 512">
      <path
        fill="currentColor"
        d="M502.285 159.704l-234-156c-7.987-4.915-16.511-4.96-24.571 0l-234 156C3.714 163.703 0 170.847 0 177.989v155.999c0 7.143 3.714 14.286 9.715 18.286l234 156.022c7.987 4.915 16.511 4.96 24.571 0l234-156.022c6-3.999 9.715-11.143 9.715-18.286V177.989c-.001-7.142-3.715-14.286-9.716-18.285zM278 63.131l172.286 114.858-76.857 51.429L278 165.703V63.131zm-44 0v102.572l-95.429 63.715-76.857-51.429L234 63.131zM44 219.132l55.143 36.857L44 292.846v-73.714zm190 229.715L61.714 333.989l76.857-51.429L234 346.275v102.572zm22-140.858l-77.715-52 77.715-52 77.715 52-77.715 52zm22 140.858V346.275l95.429-63.715 76.857 51.429L278 448.847zm190-156.001l-55.143-36.857L468 219.132v73.714z"
      />
    </symbol>

    <symbol id="freecodecamp" viewBox="0 0 576 512">
      <path
        fill="currentColor"
        d="M97.22,96.21c10.36-10.65,16-17.12,16-21.9,0-2.76-1.92-5.51-3.83-7.42A14.81,14.81,0,0,0,101,64.05c-8.48,0-20.92,8.79-35.84,25.69C23.68,137,2.51,182.81,3.37,250.34s17.47,117,54.06,161.87C76.22,435.86,90.62,448,100.9,448a13.55,13.55,0,0,0,8.37-3.84c1.91-2.76,3.81-5.63,3.81-8.38,0-5.63-3.86-12.2-13.2-20.55-44.45-42.33-67.32-97-67.48-165C32.25,188.8,54,137.83,97.22,96.21ZM239.47,420.07c.58.37.91.55.91.55Zm93.79.55.17-.13C333.24,420.62,333.17,420.67,333.26,420.62Zm3.13-158.18c-16.24-4.15,50.41-82.89-68.05-177.17,0,0,15.54,49.38-62.83,159.57-74.27,104.35,23.46,168.73,34,175.23-6.73-4.35-47.4-35.7,9.55-128.64,11-18.3,25.53-34.87,43.5-72.16,0,0,15.91,22.45,7.6,71.13C287.7,364,354,342.91,355,343.94c22.75,26.78-17.72,73.51-21.58,76.55,5.49-3.65,117.71-78,33-188.1C360.43,238.4,352.62,266.59,336.39,262.44ZM510.88,89.69C496,72.79,483.52,64,475,64a14.81,14.81,0,0,0-8.39,2.84c-1.91,1.91-3.83,4.66-3.83,7.42,0,4.78,5.6,11.26,16,21.9,43.23,41.61,65,92.59,64.82,154.06-.16,68-23,122.63-67.48,165-9.34,8.35-13.18,14.92-13.2,20.55,0,2.75,1.9,5.62,3.81,8.38A13.61,13.61,0,0,0,475.1,448c10.28,0,24.68-12.13,43.47-35.79,36.59-44.85,53.14-94.38,54.06-161.87S552.32,137,510.88,89.69Z"
      />
    </symbol>

    <symbol id="dribbble" viewBox="0 0 512 512">
      <path
        fill="currentColor"
        d="M256 8C119.252 8 8 119.252 8 256s111.252 248 248 248 248-111.252 248-248S392.748 8 256 8zm163.97 114.366c29.503 36.046 47.369 81.957 47.835 131.955-6.984-1.477-77.018-15.682-147.502-6.818-5.752-14.041-11.181-26.393-18.617-41.614 78.321-31.977 113.818-77.482 118.284-83.523zM396.421 97.87c-3.81 5.427-35.697 48.286-111.021 76.519-34.712-63.776-73.185-116.168-79.04-124.008 67.176-16.193 137.966 1.27 190.061 47.489zm-230.48-33.25c5.585 7.659 43.438 60.116 78.537 122.509-99.087 26.313-186.36 25.934-195.834 25.809C62.38 147.205 106.678 92.573 165.941 64.62zM44.17 256.323c0-2.166.043-4.322.108-6.473 9.268.19 111.92 1.513 217.706-30.146 6.064 11.868 11.857 23.915 17.174 35.949-76.599 21.575-146.194 83.527-180.531 142.306C64.794 360.405 44.17 310.73 44.17 256.323zm81.807 167.113c22.127-45.233 82.178-103.622 167.579-132.756 29.74 77.283 42.039 142.053 45.189 160.638-68.112 29.013-150.015 21.053-212.768-27.882zm248.38 8.489c-2.171-12.886-13.446-74.897-41.152-151.033 66.38-10.626 124.7 6.768 131.947 9.055-9.442 58.941-43.273 109.844-90.795 141.978z"
      />
    </symbol>

    <symbol id="hackerrank" viewBox="0 0 512 512">
      <path
        fill="currentColor"
        d="M477.5 128C463 103.05 285.13 0 256.16 0S49.25 102.79 34.84 128s-14.49 230.8 0 256 192.38 128 221.32 128S463 409.08 477.49 384s14.51-231 .01-256zM316.13 414.22c-4 0-40.91-35.77-38-38.69.87-.87 6.26-1.48 17.55-1.83 0-26.23.59-68.59.94-86.32 0-2-.44-3.43-.44-5.85h-79.93c0 7.1-.46 36.2 1.37 72.88.23 4.54-1.58 6-5.74 5.94-10.13 0-20.27-.11-30.41-.08-4.1 0-5.87-1.53-5.74-6.11.92-33.44 3-84-.15-212.67v-3.17c-9.67-.35-16.38-1-17.26-1.84-2.92-2.92 34.54-38.69 38.49-38.69s41.17 35.78 38.27 38.69c-.87.87-7.9 1.49-16.77 1.84v3.16c-2.42 25.75-2 79.59-2.63 105.39h80.26c0-4.55.39-34.74-1.2-83.64-.1-3.39.95-5.17 4.21-5.2 11.07-.08 22.15-.13 33.23-.06 3.46 0 4.57 1.72 4.5 5.38C333 354.64 336 341.29 336 373.69c8.87.35 16.82 1 17.69 1.84 2.88 2.91-33.62 38.69-37.58 38.69z"
      />
    </symbol>

    <symbol id="github" viewBox="0 0 496 512">
      <path
        fill="currentColor"
        d="M165.9 397.4c0 2-2.3 3.6-5.2 3.6-3.3.3-5.6-1.3-5.6-3.6 0-2 2.3-3.6 5.2-3.6 3-.3 5.6 1.3 5.6 3.6zm-31.1-4.5c-.7 2 1.3 4.3 4.3 4.9 2.6 1 5.6 0 6.2-2s-1.3-4.3-4.3-5.2c-2.6-.7-5.5.3-6.2 2.3zm44.2-1.7c-2.9.7-4.9 2.6-4.6 4.9.3 2 2.9 3.3 5.9 2.6 2.9-.7 4.9-2.6 4.6-4.6-.3-1.9-3-3.2-5.9-2.9zM244.8 8C106.1 8 0 113.3 0 252c0 110.9 69.8 205.8 169.5 239.2 12.8 2.3 17.3-5.6 17.3-12.1 0-6.2-.3-40.4-.3-61.4 0 0-70 15-84.7-29.8 0 0-11.4-29.1-27.8-36.6 0 0-22.9-15.7 1.6-15.4 0 0 24.9 2 38.6 25.8 21.9 38.6 58.6 27.5 72.9 20.9 2.3-16 8.8-27.1 16-33.7-55.9-6.2-112.3-14.3-112.3-110.5 0-27.5 7.6-41.3 23.6-58.9-2.6-6.5-11.1-33.3 2.6-67.9 20.9-6.5 69 27 69 27 20-5.6 41.5-8.5 62.8-8.5s42.8 2.9 62.8 8.5c0 0 48.1-33.6 69-27 13.7 34.7 5.2 61.4 2.6 67.9 16 17.7 25.8 31.5 25.8 58.9 0 96.5-58.9 104.2-114.8 110.5 9.2 7.9 17 22.9 17 46.4 0 33.7-.3 75.4-.3 83.6 0 6.5 4.6 14.4 17.3 12.1C428.2 457.8 496 362.9 496 252 496 113.3 383.5 8 244.8 8zM97.2 352.9c-1.3 1-1 3.3.7 5.2 1.6 1.6 3.9 2.3 5.2 1 1.3-1 1-3.3-.7-5.2-1.6-1.6-3.9-2.3-5.2-1zm-10.8-8.1c-.7 1.3.3 2.9 2.3 3.9 1.6 1 3.6.7 4.3-.7.7-1.3-.3-2.9-2.3-3.9-2-.6-3.6-.3-4.3.7zm32.4 35.6c-1.6 1.3-1 4.3 1.3 6.2 2.3 2.3 5.2 2.6 6.5 1 1.3-1.3.7-4.3-1.3-6.2-2.2-2.3-5.2-2.6-6.5-1zm-11.4-14.7c-1.6 1-1.6 3.6 0 5.9 1.6 2.3 4.3 3.3 5.6 2.3 1.6-1.3 1.6-3.9 0-6.2-1.4-2.3-4-3.3-5.6-2z"
      />
    </symbol>

    <symbol id="email" viewBox="0 0 512 512">
      <path
        fill="currentColor"
        d="M502.3 190.8c3.9-3.1 9.7-.2 9.7 4.7V400c0 26.5-21.5 48-48 48H48c-26.5 0-48-21.5-48-48V195.6c0-5 5.7-7.8 9.7-4.7 22.4 17.4 52.1 39.5 154.1 113.6 21.1 15.4 56.7 47.8 92.2 47.6 35.7.3 72-32.8 92.3-47.6 102-74.1 131.6-96.3 154-113.7zM256 320c23.2.4 56.6-29.2 73.4-41.4 132.7-96.3 142.8-104.7 173.4-128.7 5.8-4.5 9.2-11.5 9.2-18.9v-19c0-26.5-21.5-48-48-48H48C21.5 64 0 85.5 0 112v19c0 7.4 3.4 14.3 9.2 18.9 30.6 23.9 40.7 32.4 173.4 128.7 16.8 12.2 50.2 41.8 73.4 41.4z"
      ></path>
    </symbol>

    <symbol id="menu" viewBox="0 0 192 512">
      <path
        fill="currentColor"
        d="M96 184c39.8 0 72 32.2 72 72s-32.2 72-72 72-72-32.2-72-72 32.2-72 72-72zM24 80c0 39.8 32.2 72 72 72s72-32.2 72-72S135.8 8 96 8 24 40.2 24 80zm0 352c0 39.8 32.2 72 72 72s72-32.2 72-72-32.2-72-72-72-72 32.2-72 72z"
      ></path>
    </symbol>

    <symbol id="close" viewBox="0 0 352 512">
      <path
        fill="currentColor"
        d="M242.72 256l100.07-100.07c12.28-12.28 12.28-32.19 0-44.48l-22.24-22.24c-12.28-12.28-32.19-12.28-44.48 0L176 189.28 75.93 89.21c-12.28-12.28-32.19-12.28-44.48 0L9.21 111.45c-12.28 12.28-12.28 32.19 0 44.48L109.28 256 9.21 356.07c-12.28 12.28-12.28 32.19 0 44.48l22.24 22.24c12.28 12.28 32.2 12.28 44.48 0L176 322.72l100.07 100.07c12.28 12.28 32.2 12.28 44.48 0l22.24-22.24c12.28-12.28 12.28-32.19 0-44.48L242.72 256z"
      ></path>
    </symbol>

    <symbol id="restart" viewBox="0 0 512 512">
      <path
        fill="currentColor"
        d="M256.455 8c66.269.119 126.437 26.233 170.859 68.685l35.715-35.715C478.149 25.851 504 36.559 504 57.941V192c0 13.255-10.745 24-24 24H345.941c-21.382 0-32.09-25.851-16.971-40.971l41.75-41.75c-30.864-28.899-70.801-44.907-113.23-45.273-92.398-.798-170.283 73.977-169.484 169.442C88.764 348.009 162.184 424 256 424c41.127 0 79.997-14.678 110.629-41.556 4.743-4.161 11.906-3.908 16.368.553l39.662 39.662c4.872 4.872 4.631 12.815-.482 17.433C378.202 479.813 319.926 504 256 504 119.034 504 8.001 392.967 8 256.002 7.999 119.193 119.646 7.755 256.455 8z"
      ></path>
    </symbol>

    <symbol id="stopwatch" viewBox="0 0 512 512">
      <path
        fill="currentColor"
        d="M256 8C119 8 8 119 8 256s111 248 248 248 248-111 248-248S393 8 256 8zm0 448c-110.5 0-200-89.5-200-200S145.5 56 256 56s200 89.5 200 200-89.5 200-200 200zm61.8-104.4l-84.9-61.7c-3.1-2.3-4.9-5.9-4.9-9.7V116c0-6.6 5.4-12 12-12h32c6.6 0 12 5.4 12 12v141.7l66.8 48.6c5.4 3.9 6.5 11.4 2.6 16.8L334.6 349c-3.9 5.3-11.4 6.5-16.8 2.6z"
      ></path>
    </symbol>

    <symbol id="eye" viewBox="0 0 576 512">
      <path
        fill="currentColor"
        d="M288 144a110.94 110.94 0 0 0-31.24 5 55.4 55.4 0 0 1 7.24 27 56 56 0 0 1-56 56 55.4 55.4 0 0 1-27-7.24A111.71 111.71 0 1 0 288 144zm284.52 97.4C518.29 135.59 410.93 64 288 64S57.68 135.64 3.48 241.41a32.35 32.35 0 0 0 0 29.19C57.71 376.41 165.07 448 288 448s230.32-71.64 284.52-177.41a32.35 32.35 0 0 0 0-29.19zM288 400c-98.65 0-189.09-55-237.93-144C98.91 167 189.34 112 288 112s189.09 55 237.93 144C477.1 345 386.66 400 288 400z"
      ></path>
    </symbol>

    <symbol id="user" viewBox="0 0 448 512">
      <path
        fill="currentColor"
        d="M224 256c70.7 0 128-57.3 128-128S294.7 0 224 0 96 57.3 96 128s57.3 128 128 128zm89.6 32h-16.7c-22.2 10.2-46.9 16-72.9 16s-50.6-5.8-72.9-16h-16.7C60.2 288 0 348.2 0 422.4V464c0 26.5 21.5 48 48 48h352c26.5 0 48-21.5 48-48v-41.6c0-74.2-60.2-134.4-134.4-134.4z"
      ></path>
    </symbol>

  </defs>
</svg>
